<svg xmlns="http://www.w3.org/2000/svg" version="1.1" xmlns:xlink="http://www.w3.org/1999/xlink" xmlns:svgjs="http://svgjs.dev/svgjs" width="1000" height="1000" viewBox="0 0 1000 1000"><rect width="1000" height="1000" fill="#ffffff"></rect><g transform="matrix(0.7,0,0,0.7,149.57575757575756,384.82047628908504)"><svg viewBox="0 0 396 131" data-background-color="#333366" preserveAspectRatio="xMidYMid meet" height="330" width="1000" xmlns="http://www.w3.org/2000/svg" xmlns:xlink="http://www.w3.org/1999/xlink"><g id="tight-bounds" transform="matrix(1,0,0,1,0.2400000000000091,-0.18174196480580918)"><svg viewBox="0 0 395.52 131.3634839296116" height="131.3634839296116" width="395.52"><g><svg viewBox="0 0 605.1873596972973 200.99999999999997" height="131.3634839296116" width="395.52"><g><rect width="8.286905643243244" height="200.99999999999997" x="221.69347027027027" y="0" fill="#000000" opacity="1" stroke-width="0" stroke="transparent" fill-opacity="1" class="rect-o-0" data-fill-palette-color="primary" rx="1%" id="o-0" data-palette-color="#ffff33"></rect></g><g transform="matrix(1,0,0,1,251.67384618378378,0.4999999999999858)"><svg viewBox="0 0 353.51351351351354 200" height="200" width="353.51351351351354"><g><svg viewBox="0 0 353.51351351351354 200" height="200" width="353.51351351351354"><g><svg viewBox="0 0 353.51351351351354 200" height="200" width="353.51351351351354"><g transform="matrix(1,0,0,1,0,0)"><svg width="353.51351351351354" viewBox="0.550000011920929 -31.950002670288086 131.05001831054688 69.20000457763672" height="200" data-palette-color="#ffff33"><svg></svg><svg></svg><g class="undefined-text-0" data-fill-palette-color="primary" id="text-0"><path xmlns="http://www.w3.org/2000/svg" d="M26.4-0.75c-0.433-0.567-0.8-1.193-1.1-1.88-0.3-0.68-0.617-1.503-0.95-2.47v0c-0.067-0.167-0.257-0.667-0.57-1.5-0.32-0.833-0.68-1.55-1.08-2.15v0c-2.1 0.3-3.817 0.45-5.15 0.45v0c-0.733 0-1.54-0.027-2.42-0.08-0.887-0.047-1.547-0.07-1.98-0.07v0c-1.667-0.133-3-0.2-4-0.2v0c-0.4 0.533-0.74 1.1-1.02 1.7-0.287 0.6-0.647 1.5-1.08 2.7v0c-0.6 1.733-1.117 2.967-1.55 3.7v0c-0.3 0.5-0.883 0.75-1.75 0.75v0c-0.733 0-1.407-0.16-2.02-0.48-0.62-0.313-0.93-0.753-0.93-1.32v0c0.267-1.267 0.693-2.61 1.28-4.03 0.58-1.413 1.42-3.303 2.52-5.67v0l2-4.9c1.1-2.8 2.11-5.2 3.03-7.2 0.913-2 2.12-4.367 3.62-7.1v0c0.2-0.4 0.533-0.743 1-1.03 0.467-0.28 0.983-0.42 1.55-0.42v0c0.633 0 1.093 0.04 1.38 0.12 0.28 0.087 0.503 0.22 0.67 0.4 0.167 0.187 0.417 0.563 0.75 1.13v0c1.133 1.767 2.11 3.583 2.93 5.45 0.813 1.867 1.853 4.45 3.12 7.75v0l1.05 2.65c0.933 2.4 1.743 4.407 2.43 6.02 0.68 1.62 1.437 3.097 2.27 4.43v0c0.533 0.867 0.8 1.467 0.8 1.8v0c0 0.8-0.24 1.407-0.72 1.82-0.487 0.42-1.113 0.63-1.88 0.63v0c-0.967 0-1.7-0.333-2.2-1zM21.25-12.85c-0.533-1.133-1.3-3.1-2.3-5.9v0c-1.033-3-2.067-5.383-3.1-7.15v0c-0.633 1.6-1.567 3.667-2.8 6.2v0c-0.833 1.567-1.783 3.833-2.85 6.8v0c2.133 0.267 4.433 0.4 6.9 0.4v0c1.767 0 3.15-0.117 4.15-0.35zM37.05-17.1l-2.4-0.2c-0.467-0.067-0.843-0.267-1.13-0.6-0.28-0.333-0.42-0.733-0.42-1.2v0c0-0.233 0.057-0.483 0.17-0.75 0.12-0.267 0.297-0.5 0.53-0.7v0c0.433-0.433 1.6-0.65 3.5-0.65v0c0.267-1.3 0.4-2.617 0.4-3.95v0c0-0.5-0.017-0.933-0.05-1.3-0.033-0.367-0.05-0.65-0.05-0.85v0c0-0.733 0.273-1.283 0.82-1.65 0.553-0.367 1.18-0.55 1.88-0.55v0c0.867 0 1.46 0.217 1.78 0.65 0.313 0.433 0.47 1.233 0.47 2.4v0c0 1.733-0.15 3.433-0.45 5.1v0c0.533 0 1.267-0.033 2.2-0.1v0c1.267-0.067 2.183-0.1 2.75-0.1v0c0.567 0 1.06 0.14 1.48 0.42 0.413 0.287 0.62 0.68 0.62 1.18v0c0 1.3-0.583 2.067-1.75 2.3v0c-1.233 0.3-3.15 0.483-5.75 0.55v0c-0.1 1.3-0.15 2.717-0.15 4.25v0c0 2.4 0.15 4.367 0.45 5.9v0c0.2 1.067 0.543 1.84 1.03 2.32 0.48 0.487 1.203 0.73 2.17 0.73v0c0.567 0 1.15-0.15 1.75-0.45v0c0.4-0.233 0.767-0.35 1.1-0.35v0c0.467 0 0.81 0.15 1.03 0.45 0.213 0.3 0.32 0.7 0.32 1.2v0c0 0.933-0.5 1.707-1.5 2.32-1 0.62-2.283 0.93-3.85 0.93v0c-0.967 0-1.94-0.233-2.92-0.7-0.987-0.467-1.813-1.05-2.48-1.75v0c-0.1-0.1-0.283-0.483-0.55-1.15-0.267-0.667-0.5-1.383-0.7-2.15v0c-0.333-1.567-0.5-3.767-0.5-6.6v0c0-1.233 0.067-2.883 0.2-4.95zM76.2-2.4c0 0.733-0.39 1.35-1.17 1.85-0.787 0.5-1.513 0.75-2.18 0.75v0c-1.267 0-2.273-0.16-3.02-0.48-0.753-0.313-1.447-0.903-2.08-1.77v0c-0.867 0.767-2.05 1.34-3.55 1.72-1.5 0.387-2.883 0.58-4.15 0.58v0c-2.067 0-3.767-0.56-5.1-1.68-1.333-1.113-2-2.753-2-4.92v0c0-0.933 0.25-1.793 0.75-2.58 0.5-0.78 1.183-1.47 2.05-2.07v0c0.967-0.633 2.067-1.127 3.3-1.48 1.233-0.347 2.517-0.52 3.85-0.52v0c0.7 0 1.533 0.133 2.5 0.4 0.967 0.267 1.717 0.55 2.25 0.85v0-0.8c0-1.8-0.433-3.043-1.3-3.73-0.867-0.68-2.267-1.02-4.2-1.02v0c-0.567 0-1.127 0.117-1.68 0.35-0.547 0.233-1.17 0.55-1.87 0.95v0c-0.933 0.5-1.817 0.75-2.65 0.75v0c-0.3 0-0.583-0.21-0.85-0.63-0.267-0.413-0.4-0.787-0.4-1.12v0c0-0.967 0.457-1.8 1.37-2.5 0.92-0.7 2.013-1.227 3.28-1.58 1.267-0.347 2.4-0.52 3.4-0.52v0c1 0 2.15 0.19 3.45 0.57 1.3 0.387 2.367 0.913 3.2 1.58v0c1 0.867 1.773 1.873 2.32 3.02 0.553 1.153 0.83 2.413 0.83 3.78v0c0 0.433-0.033 1.083-0.1 1.95v0c-0.067 0.933-0.1 1.733-0.1 2.4v0c0 0.3-0.033 0.75-0.1 1.35v0c-0.067 0.733-0.1 1.317-0.1 1.75v0c0 0.4 0.15 0.743 0.45 1.03 0.3 0.28 0.65 0.42 1.05 0.42v0l1.4-0.05c0.367 0 0.65 0.133 0.85 0.4 0.2 0.267 0.3 0.6 0.3 1zM60.1-3.7c1.433 0 2.633-0.15 3.6-0.45 0.967-0.3 2.133-0.85 3.5-1.65v0c0.133-0.567 0.217-1.317 0.25-2.25v0c-1.833-0.867-3.35-1.3-4.55-1.3v0c-1.367 0-2.583 0.25-3.65 0.75-1.067 0.5-1.6 1.383-1.6 2.65v0c0 0.633 0.267 1.167 0.8 1.6 0.533 0.433 1.083 0.65 1.65 0.65zM102.3-3.85c0.167 0.067 0.433 0.15 0.8 0.25 0.367 0.1 0.633 0.2 0.8 0.3 0.167 0.1 0.25 0.25 0.25 0.45v0c0.033 0.8-0.26 1.457-0.88 1.97-0.613 0.52-1.337 0.78-2.17 0.78v0c-1.3 0-2.317-0.35-3.05-1.05-0.733-0.7-1.267-1.767-1.6-3.2v0c-0.133-0.567-0.2-1.35-0.2-2.35v0c0-0.567 0.033-1.483 0.1-2.75v0c0.067-1.333 0.1-2.4 0.1-3.2v0c0-1.167-0.327-2.193-0.98-3.08-0.647-0.88-1.553-1.32-2.72-1.32v0c-0.7 0-1.433 0.207-2.2 0.62-0.767 0.42-1.3 0.93-1.6 1.53v0c-0.5 0.967-0.85 2.017-1.05 3.15v0c-0.367 2-0.55 4.083-0.55 6.25v0c0 1.033 0.017 1.833 0.05 2.4v0c0 0.133 0.007 0.39 0.02 0.77 0.02 0.387-0.013 0.737-0.1 1.05-0.08 0.32-0.22 0.613-0.42 0.88v0c-0.167 0.167-0.423 0.31-0.77 0.43-0.353 0.113-0.68 0.17-0.98 0.17v0c-0.467 0-1.05-0.2-1.75-0.6-0.7-0.4-1.1-0.85-1.2-1.35v0l-0.05-0.85c0-0.3 0.033-0.65 0.1-1.05v0c0.4-2.333 0.6-4.367 0.6-6.1v0c0-0.767-0.017-1.367-0.05-1.8v0l-0.05-2.35c0-0.8-0.2-1.577-0.6-2.33-0.4-0.747-0.867-1.12-1.4-1.12v0c-0.167 0-0.4 0.057-0.7 0.17-0.3 0.12-0.55 0.18-0.75 0.18v0c-0.333 0-0.693-0.167-1.08-0.5-0.38-0.333-0.57-0.683-0.57-1.05v0c0-0.7 0.233-1.267 0.7-1.7v0c0.5-0.4 0.99-0.717 1.47-0.95 0.487-0.233 1.047-0.35 1.68-0.35v0c0.533 0 0.967 0.05 1.3 0.15 0.333 0.1 0.783 0.317 1.35 0.65v0c0.3 0.167 0.65 0.533 1.05 1.1 0.4 0.567 0.733 1.367 1 2.4v0c0.867-1.6 1.94-2.727 3.22-3.38 1.287-0.647 2.93-0.97 4.93-0.97v0c0.767 0 1.59 0.25 2.47 0.75 0.887 0.5 1.647 1.083 2.28 1.75v0c0.6 0.733 1.1 1.64 1.5 2.72 0.4 1.087 0.6 2.063 0.6 2.93v0c0 0.5-0.033 1.317-0.1 2.45v0c-0.1 0.9-0.15 1.85-0.15 2.85v0c0 2.333 0.45 3.767 1.35 4.3zM106.8-16.85c-0.267 0-0.51-0.11-0.73-0.33-0.213-0.213-0.32-0.47-0.32-0.77v0c0-0.767 0.333-1.483 1-2.15v0c0.2-0.1 0.6-0.267 1.2-0.5 0.6-0.233 1.133-0.35 1.6-0.35v0c1.267 0 2.3 0.34 3.1 1.02 0.8 0.687 1.2 1.663 1.2 2.93v0c0 0.367-0.067 1.15-0.2 2.35v0c-0.133 1.4-0.2 2.483-0.2 3.25v0c0 2.333 0.317 4.217 0.95 5.65v0c0.233 0.467 0.6 0.833 1.1 1.1 0.5 0.267 0.95 0.4 1.35 0.4v0c0.967 0 1.75-0.167 2.35-0.5 0.6-0.333 1.25-0.867 1.95-1.6v0c0.7-0.733 1.157-1.567 1.37-2.5 0.22-0.933 0.38-2.217 0.48-3.85v0c0.067-1.067 0.133-1.85 0.2-2.35v0c0.167-1.6 0.25-2.967 0.25-4.1v0c0-0.733 0.2-1.343 0.6-1.83 0.4-0.48 0.95-0.72 1.65-0.72v0c0.4 0 0.857 0.123 1.37 0.37 0.52 0.253 0.863 0.547 1.03 0.88v0c0.2 0.333 0.3 0.883 0.3 1.65v0c0 0.4-0.05 0.783-0.15 1.15v0c-0.233 0.833-0.35 1.833-0.35 3v0l0.05 2.6c0 2.367 0.167 4.117 0.5 5.25v0c0.167 0.533 0.4 1.073 0.7 1.62 0.3 0.553 0.583 1.013 0.85 1.38v0c0.667 0.733 1.1 1.243 1.3 1.53 0.2 0.28 0.3 0.553 0.3 0.82v0c0 0.4-0.19 0.773-0.57 1.12-0.387 0.353-0.797 0.53-1.23 0.53v0c-1.233 0-2.3-0.417-3.2-1.25-0.9-0.833-1.567-1.917-2-3.25v0c-1.133 1.3-2.183 2.35-3.15 3.15v0c-0.667 0.467-1.483 0.807-2.45 1.02-0.967 0.22-1.933 0.33-2.9 0.33v0c-1.3 0-2.617-0.533-3.95-1.6-1.333-1.067-2.233-2.3-2.7-3.7v0c-0.033-0.067-0.127-0.333-0.28-0.8-0.147-0.467-0.22-1.167-0.22-2.1v0c0-1.233 0.067-2.783 0.2-4.65v0c0.1-1.2 0.15-2.3 0.15-3.3v0c0-0.3-0.11-0.55-0.33-0.75-0.213-0.2-0.453-0.3-0.72-0.3v0c-0.2 0-0.427 0.023-0.68 0.07-0.247 0.053-0.503 0.08-0.77 0.08z" fill="#000000" fill-rule="nonzero" stroke="none" stroke-width="1" stroke-linecap="butt" stroke-linejoin="miter" stroke-miterlimit="10" stroke-dasharray="" stroke-dashoffset="0" font-family="none" font-weight="none" font-size="none" text-anchor="none" style="mix-blend-mode: normal" data-fill-palette-color="primary" opacity="1"></path><path xmlns="http://www.w3.org/2000/svg" d="M0.55 7.85c0-1.433 1.05-2.15 3.15-2.15v0c0.9 0 2.617 0.033 5.15 0.1v0c2.8 0.133 4.917 0.2 6.35 0.2v0c1.167 0 2.583-0.067 4.25-0.2v0c1.133-0.067 1.85-0.1 2.15-0.1v0c1.833 0.067 3.383 0.4 4.65 1v0c0.367 0.167 0.667 0.367 0.9 0.6 0.233 0.233 0.35 0.617 0.35 1.15v0c0 0.733-0.233 1.357-0.7 1.87-0.467 0.52-1.033 0.78-1.7 0.78v0c-0.733 0-1.8-0.1-3.2-0.3v0c-1.233-0.233-2.317-0.35-3.25-0.35v0c-0.9 0-1.583 0.017-2.05 0.05v0c-0.1 1.1-0.15 3.733-0.15 7.9v0c0 4.967 0.15 10 0.45 15.1v0l0.1 1.45c0 1.367-0.783 2.05-2.35 2.05v0c-1.233 0-2.067-0.293-2.5-0.88-0.433-0.58-0.65-1.47-0.65-2.67v0c0-2.367-0.067-5.317-0.2-8.85v0c-0.133-2.933-0.2-5.017-0.2-6.25v0c0-0.833 0.1-3.383 0.3-7.65v0l-5.85 0.05c-1.867 0-3.167-0.177-3.9-0.53-0.733-0.347-1.1-1.137-1.1-2.37zM30.3 26.4c0-1.267 0.233-2.543 0.7-3.83 0.467-1.28 1.083-2.453 1.85-3.52v0c0.767-1.067 1.983-1.943 3.65-2.63 1.667-0.68 3.15-1.02 4.45-1.02v0c1.333 0 2.693 0.183 4.08 0.55 1.38 0.367 2.337 0.933 2.87 1.7v0c1.233 1.733 1.85 3.433 1.85 5.1v0c0 0.9-0.193 1.667-0.58 2.3-0.38 0.633-0.92 1.317-1.62 2.05v0c-0.567 0.6-1.457 1-2.67 1.2-1.22 0.2-2.43 0.3-3.63 0.3v0c-0.767 0-1.7-0.077-2.8-0.23-1.1-0.147-2.167-0.337-3.2-0.57v0c0.067 0.667 0.233 1.317 0.5 1.95 0.267 0.633 0.583 1.117 0.95 1.45v0c0.667 0.633 1.36 1.033 2.08 1.2 0.713 0.167 1.637 0.25 2.77 0.25v0c1.2 0 2.317-0.2 3.35-0.6v0c0.833-0.3 1.517-0.45 2.05-0.45v0c0.633 0 1.117 0.19 1.45 0.57 0.333 0.387 0.5 0.88 0.5 1.48v0c0 0.833-0.483 1.517-1.45 2.05-0.967 0.533-2.073 0.923-3.32 1.17-1.253 0.253-2.263 0.38-3.03 0.38v0c-1.567 0-3.083-0.283-4.55-0.85-1.467-0.567-2.683-1.367-3.65-2.4v0c-0.8-0.933-1.433-2.06-1.9-3.38-0.467-1.313-0.7-2.72-0.7-4.22zM41.2 19.65c-0.733 0-1.467 0.14-2.2 0.42-0.733 0.287-1.333 0.68-1.8 1.18v0c-0.6 0.633-1.007 1.14-1.22 1.52-0.22 0.387-0.363 0.913-0.43 1.58v0c0.833 0.267 2.567 0.4 5.2 0.4v0c1.433 0 2.543-0.217 3.33-0.65 0.78-0.433 1.17-1 1.17-1.7v0c0-0.7-0.433-1.333-1.3-1.9-0.867-0.567-1.783-0.85-2.75-0.85zM72.3 20.3c0 1.467-0.75 2.2-2.25 2.2v0c-0.5 0-0.917-0.117-1.25-0.35-0.333-0.233-0.7-0.583-1.1-1.05v0c-1-1.1-1.867-1.65-2.6-1.65v0c-0.967 0-1.907 0.283-2.82 0.85-0.92 0.567-1.663 1.367-2.23 2.4-0.567 1.033-0.85 2.183-0.85 3.45v0c0 1.4 0.277 2.567 0.83 3.5 0.547 0.933 1.403 1.733 2.57 2.4v0c0.433 0.233 0.943 0.417 1.53 0.55 0.58 0.133 1.087 0.2 1.52 0.2v0c0.967 0 2.183-0.383 3.65-1.15v0c0.533-0.267 0.983-0.467 1.35-0.6 0.367-0.133 0.75-0.2 1.15-0.2v0c0.367 0 0.783 0.167 1.25 0.5 0.467 0.333 0.7 0.75 0.7 1.25v0c0 1-0.467 1.84-1.4 2.52-0.933 0.687-2.073 1.203-3.42 1.55-1.353 0.353-2.647 0.53-3.88 0.53v0c-1.967 0-3.79-0.45-5.47-1.35-1.687-0.9-3.03-2.143-4.03-3.73-1-1.58-1.5-3.37-1.5-5.37v0c0-2.133 0.483-4.083 1.45-5.85 0.967-1.767 2.267-3.15 3.9-4.15 1.633-1 3.417-1.5 5.35-1.5v0c1.1 0 2.233 0.2 3.4 0.6 1.167 0.4 2.15 0.983 2.95 1.75 0.8 0.767 1.2 1.667 1.2 2.7zM84.05 5.3c0 0.867-0.017 1.873-0.05 3.02-0.033 1.153-0.067 2.03-0.1 2.63v0c-0.1 1.7-0.15 3.4-0.15 5.1v0c0 1.267 0.05 2.583 0.15 3.95v0c1.033-1.5 2.15-2.6 3.35-3.3 1.2-0.7 2.65-1.05 4.35-1.05v0c1.233 0 2.383 0.55 3.45 1.65 1.067 1.1 1.75 2.383 2.05 3.85v0c0.1 1.3 0.15 2.883 0.15 4.75v0c0 1.2 0.067 2.767 0.2 4.7v0c0.067 0.733 0.26 1.417 0.58 2.05 0.313 0.633 0.77 0.95 1.37 0.95v0c0.3 0 0.543-0.017 0.73-0.05 0.18-0.033 0.353-0.05 0.52-0.05v0c0.467 0 0.793 0.117 0.98 0.35 0.18 0.233 0.27 0.567 0.27 1v0c0 0.8-0.4 1.4-1.2 1.8-0.8 0.4-1.533 0.6-2.2 0.6v0c-2.4 0-4.05-1-4.95-3v0c-0.5-1.133-0.817-2.61-0.95-4.43-0.133-1.813-0.2-3.937-0.2-6.37v0c0-2.4-0.817-3.6-2.45-3.6v0c-0.9 0-1.807 0.473-2.72 1.42-0.92 0.953-1.68 2.203-2.28 3.75-0.6 1.553-0.9 3.163-0.9 4.83v0l0.05 5.2c0 0.733-0.283 1.273-0.85 1.62-0.567 0.353-1.1 0.53-1.6 0.53v0c-0.733 0-1.4-0.227-2-0.68-0.6-0.447-0.9-0.953-0.9-1.52v0c0.233-2.5 0.35-6.683 0.35-12.55v0c0-1.067-0.083-5.017-0.25-11.85v0l-0.15-4.6c0-0.733 0.333-1.377 1-1.93 0.667-0.547 1.417-0.82 2.25-0.82v0c0.733 0 1.267 0.167 1.6 0.5 0.333 0.333 0.5 0.85 0.5 1.55z" fill="#000000" fill-rule="nonzero" stroke="none" stroke-width="1" stroke-linecap="butt" stroke-linejoin="miter" stroke-miterlimit="10" stroke-dasharray="" stroke-dashoffset="0" font-family="none" font-weight="none" font-size="none" text-anchor="none" style="mix-blend-mode: normal" data-fill-palette-color="primary" opacity="1"></path></g></svg></g></svg></g></svg></g></svg></g><g transform="matrix(1,0,0,1,0,0.4999999999999858)"><svg viewBox="0 0 200 200" height="200" width="200"><g><svg xmlns="http://www.w3.org/2000/svg" xmlns:xlink="http://www.w3.org/1999/xlink" version="1.1" x="0" y="0" viewBox="20 20 480 480" style="enable-background:new 0 0 512 512;" xml:space="preserve" height="200" width="200" class="icon-icon-0" data-fill-palette-color="accent" id="icon-0"><g fill="#ffffff" data-fill-palette-color="accent"><g fill="#ffffff" data-fill-palette-color="accent"><g fill="#ffffff" data-fill-palette-color="accent"><path d="M400 500H120c-2.63 0-5.21-1.07-7.07-2.931C111.07 495.21 110 492.63 110 490V270c0-5.521 4.49-10 10-10 5.51 0 10 4.479 10 10v210h260V210c0-5.51 4.49-10 10-10s10 4.49 10 10v280c0 2.63-1.07 5.21-2.931 7.069C405.21 498.93 402.63 500 400 500zM120 230c-5.51 0-10-4.49-10-10 0-5.51 4.49-10 10-10 5.51 0 10 4.49 10 10C130 225.51 125.51 230 120 230zM120 180c-5.51 0-10-4.49-10-10V30c0-2.63 1.07-5.21 2.93-7.07 1.86-1.86 4.44-2.93 7.07-2.93h280c2.63 0 5.21 1.07 7.069 2.93C408.93 24.79 410 27.37 410 30v80c0 5.52-4.49 10-10 10s-10-4.48-10-10V40H130v129.99V170C130 175.51 125.51 180 120 180zM400 170c-5.51 0-10-4.49-10-10 0-5.51 4.49-10 10-10s10 4.49 10 10C410 165.51 405.51 170 400 170z" fill="#000000" data-fill-palette-color="accent"></path></g><g fill="#ffffff" data-fill-palette-color="accent"><path d="M360 460H160c-2.63 0-5.21-1.07-7.07-2.931C151.07 455.21 150 452.63 150 450V150c0-5.51 4.49-10 10-10 5.51 0 10 4.49 10 10v290h180c0-5.51 4.49-10 10-10s10 4.49 10 10c0 1.76-0.46 3.49-1.34 5 0.88 1.51 1.34 3.24 1.34 5C370 455.51 365.51 460 360 460zM360 400c-5.51 0-10-4.48-10-10V80H180.01 180c-5.51 0-10-4.48-10-10 0-5.51 4.49-10 10-10h180c2.63 0 5.21 1.07 7.069 2.93C368.93 64.79 370 67.37 370 70v320C370 395.52 365.51 400 360 400zM160 110c-5.51 0-10-4.49-10-10 0-5.51 4.49-10 10-10 5.51 0 10 4.49 10 10C170 105.51 165.51 110 160 110z" fill="#000000" data-fill-palette-color="accent"></path></g><g fill="#ffffff" data-fill-palette-color="accent"><path d="M450 90h-50c-2.63 0-5.21-1.07-7.07-2.93S390 82.63 390 80V40c0-2.63 1.069-5.21 2.93-7.07 1.86-1.86 4.44-2.93 7.07-2.93h50c2.63 0 5.21 1.07 7.069 2.93C458.93 34.79 460 37.37 460 40v40c0 2.63-1.07 5.21-2.931 7.07C455.21 88.93 452.63 90 450 90zM410 70h30V50h-30V70z" fill="#000000" data-fill-palette-color="accent"></path></g><g fill="#ffffff" data-fill-palette-color="accent"><path d="M450 170h-50c-2.63 0-5.21-1.07-7.07-2.93S390 162.63 390 160v-40c0-2.63 1.069-5.21 2.93-7.07 1.86-1.86 4.44-2.93 7.07-2.93h50c2.63 0 5.21 1.07 7.069 2.93 1.86 1.86 2.931 4.44 2.931 7.07v40c0 2.63-1.07 5.21-2.931 7.07C455.21 168.93 452.63 170 450 170zM410 150h30v-20h-30V150z" fill="#000000" data-fill-palette-color="accent"></path></g><g fill="#ffffff" data-fill-palette-color="accent"><path d="M450 250h-50c-2.641 0-5.21-1.07-7.07-2.93S390 242.63 390 240v-40c0-2.63 1.069-5.21 2.93-7.07 1.86-1.86 4.44-2.93 7.07-2.93h50c2.63 0 5.21 1.07 7.069 2.93 1.86 1.86 2.931 4.44 2.931 7.07v40c0 2.63-1.07 5.21-2.931 7.07C455.21 248.93 452.63 250 450 250zM410 230h30v-20h-30V230z" fill="#000000" data-fill-palette-color="accent"></path></g><g fill="#ffffff" data-fill-palette-color="accent"><path d="M450 330h-50c-2.641 0-5.21-1.07-7.07-2.931-1.86-1.859-2.93-4.439-2.93-7.069v-40c0-2.63 1.069-5.21 2.93-7.07S397.37 270 400 270h50c2.63 0 5.21 1.069 7.069 2.93 1.86 1.86 2.931 4.44 2.931 7.07v40c0 2.63-1.07 5.21-2.931 7.069C455.21 328.93 452.63 330 450 330zM410 310h30v-20h-30V310z" fill="#000000" data-fill-palette-color="accent"></path></g><g fill="#ffffff" data-fill-palette-color="accent"><path d="M450 410h-50c-2.63 0-5.21-1.07-7.07-2.931-1.86-1.859-2.93-4.439-2.93-7.069v-40c0-2.63 1.069-5.21 2.93-7.07S397.37 350 400 350h50c2.63 0 5.21 1.069 7.069 2.93 1.86 1.86 2.931 4.44 2.931 7.07v40c0 2.63-1.07 5.21-2.931 7.069C455.21 408.93 452.63 410 450 410zM410 390h30v-20h-30V390z" fill="#000000" data-fill-palette-color="accent"></path></g><g fill="#ffffff" data-fill-palette-color="accent"><path d="M450 490h-50c-2.63 0-5.21-1.07-7.07-2.931-1.86-1.859-2.93-4.439-2.93-7.069v-40c0-2.63 1.069-5.21 2.93-7.07S397.37 430 400 430h50c2.63 0 5.21 1.069 7.069 2.93 1.86 1.86 2.931 4.44 2.931 7.07v40c0 2.63-1.07 5.21-2.931 7.069C455.21 488.93 452.63 490 450 490zM410 470h30v-20h-30V470z" fill="#000000" data-fill-palette-color="accent"></path></g><g fill="#ffffff" data-fill-palette-color="accent"><path d="M490 70h-40c-5.51 0-10-4.49-10-10 0-5.51 4.49-10 10-10h40c5.51 0 10 4.49 10 10C500 65.51 495.51 70 490 70z" fill="#000000" data-fill-palette-color="accent"></path></g><g fill="#ffffff" data-fill-palette-color="accent"><path d="M490 150h-40c-5.51 0-10-4.49-10-10 0-5.51 4.49-10 10-10h40c5.51 0 10 4.49 10 10C500 145.51 495.51 150 490 150z" fill="#000000" data-fill-palette-color="accent"></path></g><g fill="#ffffff" data-fill-palette-color="accent"><path d="M490 230h-40c-5.51 0-10-4.48-10-10 0-5.51 4.49-10 10-10h40c5.51 0 10 4.49 10 10C500 225.52 495.51 230 490 230z" fill="#000000" data-fill-palette-color="accent"></path></g><g fill="#ffffff" data-fill-palette-color="accent"><path d="M490 310h-40c-5.51 0-10-4.49-10-10s4.49-10 10-10h40c5.51 0 10 4.49 10 10S495.51 310 490 310z" fill="#000000" data-fill-palette-color="accent"></path></g><g fill="#ffffff" data-fill-palette-color="accent"><path d="M490 390h-40c-5.51 0-10-4.49-10-10s4.49-10 10-10h40c5.51 0 10 4.49 10 10S495.51 390 490 390z" fill="#000000" data-fill-palette-color="accent"></path></g><g fill="#ffffff" data-fill-palette-color="accent"><path d="M490 470h-40c-5.51 0-10-4.49-10-10s4.49-10 10-10h40c5.51 0 10 4.49 10 10S495.51 470 490 470z" fill="#000000" data-fill-palette-color="accent"></path></g><g fill="#ffffff" data-fill-palette-color="accent"><path d="M120 90H70c-2.63 0-5.21-1.07-7.07-2.93C61.07 85.21 60 82.63 60 80V40c0-2.63 1.07-5.21 2.93-7.07C64.79 31.07 67.37 30 70 30h50c2.63 0 5.21 1.07 7.07 2.93 1.86 1.86 2.93 4.44 2.93 7.07v40c0 2.63-1.07 5.21-2.93 7.07S122.63 90 120 90zM80 70h30V50H80V70z" fill="#000000" data-fill-palette-color="accent"></path></g><g fill="#ffffff" data-fill-palette-color="accent"><path d="M120 170H70c-2.63 0-5.21-1.07-7.07-2.93C61.07 165.21 60 162.63 60 160v-40c0-2.63 1.07-5.21 2.93-7.07 1.86-1.86 4.44-2.93 7.07-2.93h50c2.63 0 5.21 1.07 7.07 2.93 1.86 1.86 2.93 4.44 2.93 7.07v40c0 2.63-1.07 5.21-2.93 7.07S122.63 170 120 170zM80 150h30v-20H80V150z" fill="#000000" data-fill-palette-color="accent"></path></g><g fill="#ffffff" data-fill-palette-color="accent"><path d="M120 250H70c-2.63 0-5.21-1.07-7.07-2.93C61.07 245.21 60 242.63 60 240v-40c0-2.63 1.07-5.21 2.93-7.07 1.86-1.86 4.44-2.93 7.07-2.93h50c2.63 0 5.21 1.07 7.07 2.93 1.86 1.86 2.93 4.44 2.93 7.07v40c0 2.63-1.07 5.21-2.93 7.07S122.63 250 120 250zM80 230h30v-20H80V230z" fill="#000000" data-fill-palette-color="accent"></path></g><g fill="#ffffff" data-fill-palette-color="accent"><path d="M120 330H70c-2.63 0-5.21-1.07-7.07-2.931C61.07 325.21 60 322.63 60 320v-40c0-2.63 1.07-5.21 2.93-7.07 1.86-1.86 4.44-2.93 7.07-2.93h50c2.63 0 5.21 1.069 7.07 2.93S130 277.37 130 280v40c0 2.63-1.07 5.21-2.93 7.069C125.21 328.93 122.63 330 120 330zM80 310h30v-20H80V310z" fill="#000000" data-fill-palette-color="accent"></path></g><g fill="#ffffff" data-fill-palette-color="accent"><path d="M120 410H70c-2.63 0-5.21-1.07-7.07-2.931C61.07 405.21 60 402.63 60 400v-40c0-2.63 1.07-5.21 2.93-7.07 1.86-1.86 4.44-2.93 7.07-2.93h50c2.63 0 5.21 1.069 7.07 2.93S130 357.37 130 360v40c0 2.63-1.07 5.21-2.93 7.069C125.21 408.93 122.63 410 120 410zM80 390h30v-20H80V390z" fill="#000000" data-fill-palette-color="accent"></path></g><g fill="#ffffff" data-fill-palette-color="accent"><path d="M120 490H70c-2.63 0-5.21-1.07-7.07-2.931C61.07 485.21 60 482.63 60 480v-40c0-2.63 1.07-5.21 2.93-7.07 1.86-1.86 4.44-2.93 7.07-2.93h50c2.63 0 5.21 1.069 7.07 2.93S130 437.37 130 440v40c0 2.63-1.07 5.21-2.93 7.069C125.21 488.93 122.63 490 120 490zM80 470h30v-20H80V470z" fill="#000000" data-fill-palette-color="accent"></path></g><g fill="#ffffff" data-fill-palette-color="accent"><path d="M70 70H30c-5.51 0-10-4.49-10-10 0-5.51 4.49-10 10-10h40c5.51 0 10 4.49 10 10C80 65.51 75.51 70 70 70z" fill="#000000" data-fill-palette-color="accent"></path></g><g fill="#ffffff" data-fill-palette-color="accent"><path d="M70 150H30c-5.51 0-10-4.48-10-10 0-5.51 4.49-10 10-10h40c5.51 0 10 4.49 10 10C80 145.52 75.51 150 70 150z" fill="#000000" data-fill-palette-color="accent"></path></g><g fill="#ffffff" data-fill-palette-color="accent"><path d="M70 230H30c-5.51 0-10-4.49-10-10 0-5.51 4.49-10 10-10h40c5.51 0 10 4.49 10 10C80 225.51 75.51 230 70 230z" fill="#000000" data-fill-palette-color="accent"></path></g><g fill="#ffffff" data-fill-palette-color="accent"><path d="M70 310H30c-5.51 0-10-4.49-10-10s4.49-10 10-10h40c5.51 0 10 4.49 10 10S75.51 310 70 310z" fill="#000000" data-fill-palette-color="accent"></path></g><g fill="#ffffff" data-fill-palette-color="accent"><path d="M70 390H30c-5.51 0-10-4.49-10-10 0-5.521 4.49-10 10-10h40c5.51 0 10 4.479 10 10C80 385.51 75.51 390 70 390z" fill="#000000" data-fill-palette-color="accent"></path></g><g fill="#ffffff" data-fill-palette-color="accent"><path d="M70 470H30c-5.51 0-10-4.49-10-10s4.49-10 10-10h40c5.51 0 10 4.49 10 10S75.51 470 70 470z" fill="#000000" data-fill-palette-color="accent"></path></g><g fill="#ffffff" data-fill-palette-color="accent"><path d="M320 170H200c-2.63 0-5.21-1.07-7.07-2.93-1.86-1.86-2.93-4.44-2.93-7.07v-50c0-2.63 1.07-5.21 2.93-7.07 1.86-1.86 4.44-2.93 7.07-2.93h120c2.63 0 5.21 1.07 7.069 2.93 1.86 1.86 2.931 4.44 2.931 7.07v50c0 2.63-1.07 5.21-2.931 7.07C325.21 168.93 322.63 170 320 170zM210 150h100v-30H210V150z" fill="#000000" data-fill-palette-color="accent"></path></g><g fill="#ffffff" data-fill-palette-color="accent"><path d="M320 250H200c-2.63 0-5.21-1.07-7.07-2.93-1.86-1.86-2.93-4.44-2.93-7.07v-40c0-2.63 1.07-5.21 2.93-7.07 1.86-1.86 4.44-2.93 7.07-2.93h120c2.63 0 5.21 1.07 7.069 2.93 1.86 1.86 2.931 4.44 2.931 7.07v40c0 2.63-1.07 5.21-2.931 7.07C325.21 248.93 322.63 250 320 250zM210 230h100v-20H210V230z" fill="#000000" data-fill-palette-color="accent"></path></g><g fill="#ffffff" data-fill-palette-color="accent"><path d="M320 330H200c-2.63 0-5.21-1.07-7.07-2.931C191.07 325.21 190 322.63 190 320v-40c0-2.63 1.07-5.21 2.93-7.07 1.86-1.86 4.44-2.93 7.07-2.93h120c2.63 0 5.21 1.069 7.069 2.93 1.86 1.86 2.931 4.44 2.931 7.07v40c0 2.63-1.07 5.21-2.931 7.069C325.21 328.93 322.63 330 320 330zM210 310h100v-20H210V310z" fill="#000000" data-fill-palette-color="accent"></path></g><g fill="#ffffff" data-fill-palette-color="accent"><path d="M320 420H200c-2.63 0-5.21-1.07-7.07-2.931C191.07 415.21 190 412.63 190 410v-50c0-2.63 1.07-5.21 2.93-7.07 1.86-1.86 4.44-2.93 7.07-2.93h120c2.63 0 5.21 1.069 7.069 2.93 1.86 1.86 2.931 4.44 2.931 7.07v50c0 2.63-1.07 5.21-2.931 7.069C325.21 418.93 322.63 420 320 420zM210 400h100v-30H210V400z" fill="#000000" data-fill-palette-color="accent"></path></g></g></g></svg></g></svg></g></svg></g><defs></defs></svg><rect width="395.52" height="131.3634839296116" fill="none" stroke="none" visibility="hidden"></rect></g></svg></g></svg>